<svg version="1.1" xmlns="http://www.w3.org/2000/svg" viewBox="0 0 24 24" enable-background="new 0 0 24 24"><circle fill="#CFD8DC" cx="11.844" cy="11.903" r="9.359"/><path fill="#546E7A" fill-opacity="0.9" d="M11.99,2C6.47,2,2,6.48,2,12c0,5.52,4.47,10,9.99,10C17.52,22,22,17.52,22,12C22,6.48,17.52,2,11.99,2z M12,20c-4.42,0-8-3.58-8-8s3.58-8,8-8s8,3.58,8,8S16.42,20,12,20z"/><path fill="none" d="M0,0h24v24H0V0z"/><path fill="#455A64" fill-opacity="0.9" d="M12.5,7H11v6l5.25,3.15L17,14.92l-4.5-2.67V7z"/></svg>