<svg version="1.1" xmlns="http://www.w3.org/2000/svg" viewBox="0 0 24 24" enable-background="new 0 0 24 24"><path fill="#66BB6A" d="M12,2C6.48,2,2,6.48,2,12c0,5.52,4.48,10,10,10c5.52,0,10-4.48,10-10C22,6.48,17.52,2,12,2z M12,20c-4.41,0-8-3.59-8-8s3.59-8,8-8s8,3.59,8,8S16.41,20,12,20z"/><path opacity="0.7" fill="#4CAF50" enable-background="new    " d="M12,2v2c4.41,0,8,3.59,8,8s-3.59,8-8,8v2c5.52,0,10-4.48,10-10C22,6.48,17.52,2,12,2z"/><polygon fill="#4CAF50" enable-background="new    " points="13,7 11,7 11,11 7,11 7,13 11,13 11,17 13,17 13,13 17,13 17,11 13,11"/></svg>