<svg version="1.1" xmlns="http://www.w3.org/2000/svg" viewBox="0 0 24 24" enable-background="new 0 0 24 24"><path fill="none" d="M0,0h24v24H0V0z"/><path fill="#9575CD" d="M22,5.72l-4.6-3.86l-1.291,1.53l4.601,3.86L22,5.72z M7.88,3.39L6.6,1.86L2,5.71l1.29,1.53L7.88,3.39z"/><path fill="#7E57C2" d="M12,4c-4.97,0-9,4.03-9,9s4.02,9,9,9c4.971,0,9-4.03,9-9S16.971,4,12,4z"/><path fill="#E0E0E0" d="M12,20c-3.87,0-7-3.13-7-7s3.13-7,7-7s7,3.13,7,7S15.87,20,12,20z"/><polygon fill="#00BCD4" points="13,9 11,9 11,12 8,12 8,14 11,14 11,17 13,17 13,14 16,14 16,12 13,12 "/></svg>