<svg version="1.1" xmlns="http://www.w3.org/2000/svg" viewBox="0 0 24 24" enable-background="new 0 0 24 24"><path fill="none" d="M0,0h24v24H0V0z"/><path opacity="0.6" fill="#90A4AE" d="M22,5.72l-4.6-3.86l-1.291,1.53l4.601,3.86L22,5.72z M8.02,3.28L6.6,1.86L1.87,5.83l1.42,1.42L8.02,3.28z"/><path fill="#90A4AE" d="M12,4c-4.97,0-9,4.03-9,9s4.02,9,9,9c4.971,0,9-4.03,9-9S16.971,4,12,4z"/><path fill="#E0E0E0" d="M12,20c-3.87,0-7-3.13-7-7s3.13-7,7-7s7,3.13,7,7S15.87,20,12,20z"/><polygon fill="#9FA8DA" points="20.09,22 1.65,3.57 2.92,2.29 21.359,20.73 "/></svg>