<svg version="1.1" xmlns="http://www.w3.org/2000/svg" viewBox="0 0 24 24" enable-background="new 0 0 24 24"><rect x="2.708" y="4.25" fill="#C5CAE9" width="18.667" height="15.375"/><polygon fill="#9FA8DA" points="19,12 17,12 17,15 14,15 14,17 19,17 "/><polygon fill="#9FA8DA" points="7,9 10,9 10,7 5,7 5,12 7,12 "/><path fill="#5C6BC0" d="M21,3H3C1.9,3,1,3.9,1,5v14c0,1.1,0.9,2,2,2h18c1.1,0,2-0.9,2-2V5C23,3.9,22.1,3,21,3z M21,19.01H3V4.99h18V19.01z"/><path fill="none" d="M0,0v24h24V0H0z M3,4.99h18v14.02H3V4.99z"/></svg>