<svg version="1.1" xmlns="http://www.w3.org/2000/svg" viewBox="0 0 24 24" enable-background="new 0 0 24 24"><path fill="#E53935" d="M15.67,4H14V2h-4v2H8.33C7.6,4,7,4.6,7,5.33v15.33C7,21.4,7.6,22,8.33,22h7.33C16.4,22,17,21.4,17,20.67V5.33C17,4.6,16.4,4,15.67,4z"/><rect x="11.05" y="16.05" fill="#FFFFFF" width="1.9" height="1.9"/><path fill="#FFFFFF" d="M14.3,12.689c0,0-0.38,0.42-0.67,0.711C13.15,13.88,12.8,14.55,12.8,15h-1.6c0-0.83,0.46-1.52,0.93-2l0.931-0.94C13.33,11.79,13.5,11.41,13.5,11c0-0.83-0.67-1.5-1.5-1.5s-1.5,0.67-1.5,1.5H9c0-1.66,1.34-3,3-3s3,1.34,3,3C15,11.66,14.73,12.26,14.3,12.689z"/></svg>