<svg version="1.1" xmlns="http://www.w3.org/2000/svg" viewBox="0 0 24 24" enable-background="new 0 0 24 24"><path fill="#FFC107" fill-opacity="0.3" d="M17,5.33v9.17h-3.07l1.07-2h-2V7l-4,7.5H7V5.33C7,4.6,7.6,4,8.33,4H10V2h4v2h1.67C16.4,4,17,4.6,17,5.33z"/><polygon fill="#FFFFFF" points="15,12.5 13.93,14.5 11,20 11,14.5 9,14.5 13,7 13,12.5 "/><path fill="#FFC107" d="M17,14.5v6.17C17,21.4,16.4,22,15.66,22H8.33C7.6,22,7,21.4,7,20.67V14.5h4V20l2.93-5.5H17z"/><path fill="none" d="M0,0h24v24H0V0z"/></svg>