<svg version="1.1" xmlns="http://www.w3.org/2000/svg" viewBox="0 0 24 24" enable-background="new 0 0 24 24"><path fill="none" d="M21,3l-0.01,12.93c0,0.69-0.351,1.301-0.88,1.66l-8.061,5.38V24H0V0h12.05v1H19C20.1,1,21,1.9,21,3z"/><path fill="#81D4FA" d="M21,3l-0.01,12.93c0,0.69-0.351,1.301-0.88,1.66l-8.061,5.38L12,23l-8.12-5.41C3.35,17.23,3,16.62,3,15.93L3.01,3C3.01,1.9,3.9,1,5,1h14C20.1,1,21,1.9,21,3z"/><path opacity="0.5" fill="#4FC3F7" enable-background="new    " d="M20.11,17.59l-8.061,5.38V1H19c1.1,0,2,0.9,2,2l-0.01,12.93C20.99,16.62,20.64,17.23,20.11,17.59z"/><polygon fill="#FDD835" points="10,16 5,11 6.41,9.59 10,13.17 17.59,5.58 19,7 "/></svg>