<svg version="1.1" xmlns="http://www.w3.org/2000/svg" viewBox="0 0 24 24" enable-background="new 0 0 24 24"><g><circle fill="#4FC3F7" cx="6" cy="14" r="1"/><circle fill="#4FC3F7" cx="6" cy="18" r="1"/><circle fill="#4FC3F7" cx="6" cy="10" r="1"/><path fill="#81D4FA" d="M3,9.5c-0.28,0-0.5,0.22-0.5,0.5s0.22,0.5,0.5,0.5s0.5-0.22,0.5-0.5S3.28,9.5,3,9.5z"/><circle fill="#4FC3F7" cx="6" cy="6" r="1"/><path fill="#81D4FA" d="M21,10.5c0.279,0,0.5-0.22,0.5-0.5S21.279,9.5,21,9.5s-0.5,0.22-0.5,0.5S20.721,10.5,21,10.5z"/><circle fill="#4FC3F7" cx="14" cy="6" r="1"/><path fill="#81D4FA" d="M14,3.5c0.279,0,0.5-0.22,0.5-0.5S14.279,2.5,14,2.5S13.5,2.72,13.5,3S13.721,3.5,14,3.5z"/><path fill="#81D4FA" d="M3,13.5c-0.28,0-0.5,0.22-0.5,0.5s0.22,0.5,0.5,0.5s0.5-0.22,0.5-0.5S3.28,13.5,3,13.5z"/><path fill="#81D4FA" d="M10,20.5c-0.28,0-0.5,0.22-0.5,0.5s0.22,0.5,0.5,0.5s0.5-0.22,0.5-0.5S10.28,20.5,10,20.5z"/><path fill="#81D4FA" d="M10,3.5c0.28,0,0.5-0.22,0.5-0.5S10.28,2.5,10,2.5S9.5,2.72,9.5,3S9.72,3.5,10,3.5z"/><circle fill="#4FC3F7" cx="10" cy="6" r="1"/><circle fill="#039BE5" cx="10" cy="14" r="1.5"/><circle fill="#4FC3F7" cx="18" cy="14" r="1"/><circle fill="#4FC3F7" cx="18" cy="18" r="1"/><circle fill="#4FC3F7" cx="18" cy="10" r="1"/><circle fill="#4FC3F7" cx="18" cy="6" r="1"/><path fill="#81D4FA" d="M21,13.5c-0.279,0-0.5,0.22-0.5,0.5s0.221,0.5,0.5,0.5s0.5-0.22,0.5-0.5S21.279,13.5,21,13.5z"/><circle fill="#4FC3F7" cx="14" cy="18" r="1"/><path fill="#81D4FA" d="M14,20.5c-0.279,0-0.5,0.22-0.5,0.5s0.221,0.5,0.5,0.5s0.5-0.22,0.5-0.5S14.279,20.5,14,20.5z"/><circle fill="#039BE5" cx="10" cy="10" r="1.5"/><circle fill="#4FC3F7" cx="10" cy="18" r="1"/><circle fill="#039BE5" cx="14" cy="14" r="1.5"/><circle fill="#039BE5" cx="14" cy="10" r="1.5"/></g></svg>