<svg version="1.1" xmlns="http://www.w3.org/2000/svg" viewBox="0 0 24 24" enable-background="new 0 0 24 24"><circle fill="#039BE5" cx="5" cy="16" r="1.5"/><circle opacity="0.8" fill="#039BE5" cx="9" cy="12" r="1"/><circle opacity="0.8" fill="#039BE5" cx="9" cy="8" r="1"/><rect x="3" y="19" fill="#039BE5" width="18" height="2"/><circle fill="#039BE5" cx="5" cy="8" r="1.5"/><circle fill="#039BE5" cx="5" cy="12" r="1.5"/><circle opacity="0.8" fill="#039BE5" cx="9" cy="16" r="1"/><path fill="#81D4FA" d="M17,16.5c0.279,0,0.5-0.22,0.5-0.5s-0.221-0.5-0.5-0.5s-0.5,0.22-0.5,0.5S16.721,16.5,17,16.5z"/><rect x="3" y="3" fill="#039BE5" width="18" height="2"/><path fill="#81D4FA" d="M17,8.5c0.279,0,0.5-0.22,0.5-0.5S17.279,7.5,17,7.5S16.5,7.72,16.5,8S16.721,8.5,17,8.5z"/><path fill="#81D4FA" d="M17,12.5c0.279,0,0.5-0.22,0.5-0.5s-0.221-0.5-0.5-0.5s-0.5,0.22-0.5,0.5S16.721,12.5,17,12.5z"/><circle fill="#4FC3F7" cx="13" cy="8" r="1"/><circle fill="#4FC3F7" cx="13" cy="12" r="1"/><circle fill="#4FC3F7" cx="13" cy="16" r="1"/></svg>