<svg version="1.1" xmlns="http://www.w3.org/2000/svg" viewBox="0 0 24 24" enable-background="new 0 0 24 24"><rect x="11" y="19" fill="#7E57C2" width="2" height="2"/><rect x="11" y="15" fill="#7E57C2" width="2" height="2"/><rect x="11" y="3" fill="#7E57C2" width="2" height="2"/><rect x="11" y="7" fill="#7E57C2" width="2" height="2"/><rect x="11" y="11" fill="#7E57C2" width="2" height="2"/><rect x="7" y="19" fill="#7E57C2" width="2" height="2"/><rect x="7" y="3" fill="#7E57C2" width="2" height="2"/><rect x="7" y="11" fill="#7E57C2" width="2" height="2"/><rect x="3" y="3" fill="#512DA8" width="2" height="18"/><rect x="19" y="7" fill="#7E57C2" width="2" height="2"/><rect x="15" y="19" fill="#7E57C2" width="2" height="2"/><rect x="19" y="15" fill="#7E57C2" width="2" height="2"/><rect x="19" y="3" fill="#7E57C2" width="2" height="2"/><rect x="19" y="11" fill="#7E57C2" width="2" height="2"/><rect x="19" y="19" fill="#7E57C2" width="2" height="2"/><rect x="15" y="11" fill="#7E57C2" width="2" height="2"/><rect x="15" y="3" fill="#7E57C2" width="2" height="2"/><path fill="none" d="M0,0h24v24H0V0z"/></svg>